<?xml version="1.0" encoding="UTF-8"?>
<svg width="540px" height="540px" viewBox="0 0 540 540" xmlns="http://www.w3.org/2000/svg" xmlns:xlink="http://www.w3.org/1999/xlink" version="1.1">
 <!-- Generated by Pixelmator Pro 2.0 -->
 <g id="New-Group-copy-1">
  <defs>
   <path id="Ellipse" d="M521 270 C521 131.377 408.623 19 270 19 131.377 19 19 131.377 19 270 19 408.623 131.377 521 270 521 408.623 521 521 408.623 521 270 Z"/>
  </defs>
  <defs>
   <path id="stroke-path" d="M521 270 C521 131.377 408.623 19 270 19 131.377 19 19 131.377 19 270 19 408.623 131.377 521 270 521 408.623 521 521 408.623 521 270 Z" stroke-linejoin="round"/>
  </defs>
  <use id="Ellipse-1" stroke="#272a2a" stroke-opacity="1" stroke-linecap="round" fill="none" stroke-width="7" xlink:href="#stroke-path"/>
  <defs>
   <path id="stroke-path-1" d="M298.203 528.5 L320.797 525.063 342.703 519.719 363.75 512.594 374.125 508.328 385.594 502.969 402.125 493.984 417.906 483.875 428.063 476.469 437.781 468.641 447.125 460.359 456.031 451.641 464.531 442.5 472.594 432.984 480.188 423.078 487.359 412.734 497.063 396.75 502.969 385.563 508.344 374.063 515.828 354.891 522.203 333.453 526.219 314.391 529.125 291.656 530 270.078 529.75 258.297 528.828 245.063 527.234 232.031 525.016 219.125 519.719 197.375 515.828 185.109 511.359 173.172 505.719 160.141 500.109 148.844 493.969 137.875 487.328 127.234 480.188 116.938 472.594 107.031 464.531 97.516 456.031 88.375 447.125 79.656 437.734 71.344 423.094 59.828 412.766 52.672 402.078 46 385.594 37.047 374.125 31.688 363.75 27.422 342.703 20.297 320.797 14.953 298.203 11.516 275.063 10.047 254.922 10.438 232.031 12.75 209.719 17.016 188.203 23.125 176.156 27.453 165.813 31.719 148.875 39.875 137.859 46.031 127.172 52.703 111.969 63.516 102.203 71.375 92.859 79.656 83.953 88.375 75.422 97.547 63.563 111.906 56.156 122.047 49.234 132.563 39.906 148.797 34.281 160.125 29.781 170.359 22.141 191.172 16.281 212.875 12.297 235.281 10.234 258.281 10.125 278.406 11.875 301.484 15.594 323.984 21.203 345.797 28.609 366.813 36.984 385.5 42.891 396.703 49.297 407.547 59.766 423.031 67.391 432.984 75.453 442.5 83.953 451.641 92.859 460.359 102.203 468.641 111.922 476.469 122.031 483.844 132.547 490.766 148.828 500.125 165.813 508.297 176.156 512.563 188.203 516.891 209.719 523 232.031 527.266 254.922 529.578 275.063 529.969 Z"/>
  </defs>
  <use id="Ellipse-2" stroke="#272a2a" stroke-opacity="1" stroke-linecap="round" fill="none" stroke-width="18" xlink:href="#stroke-path-1"/>
  <defs>
   <path id="stroke-path-2" d="M296.344 512.094 L317.703 508.828 337.984 503.891 357.984 497.109 367.547 493.188 378.141 488.234 393.766 479.75 408.516 470.297 418.047 463.344 427.078 456.078 436 448.156 444.094 440.25 452.188 431.531 459.844 422.484 466.891 413.313 473.547 403.703 482.594 388.813 488.266 378.063 493.172 367.563 500.219 349.516 506.172 329.453 509.953 311.563 512.656 290.375 513.5 269.859 513.25 259.047 512.375 246.453 510.938 234.609 508.844 222.438 503.891 202.078 500.203 190.484 495.984 179.172 490.828 167.266 485.516 156.563 479.734 146.219 473.578 136.359 466.891 126.703 459.844 117.531 452.188 108.484 444.094 99.766 436 91.859 427.094 83.953 413.281 73.109 403.641 66.422 393.875 60.328 378.141 51.781 367.547 46.828 357.984 42.906 337.984 36.125 317.703 31.188 296.344 27.922 274.719 26.547 256 26.922 234.234 29.125 213.641 33.063 193.234 38.859 182.109 42.859 172.344 46.875 156.594 54.453 146.203 60.266 136.328 66.422 122 76.625 112.906 83.938 103.984 91.859 95.891 99.766 87.781 108.5 76.609 122 69.625 131.594 63.25 141.281 54.469 156.563 49.25 167.094 45.078 176.547 37.859 196.281 32.438 216.344 28.656 237.547 26.734 259.047 26.625 277.766 28.266 299.5 31.766 320.594 37.016 341.016 43.953 360.734 51.719 378.063 57.391 388.813 63.125 398.531 73.234 413.484 80.141 422.484 87.797 431.531 95.891 440.25 103.984 448.156 112.906 456.078 121.938 463.344 131.469 470.297 141.266 476.75 156.578 485.547 172.344 493.141 182.109 497.156 193.234 501.156 213.641 506.953 234.234 510.891 256 513.094 274.719 513.469 Z"/>
  </defs>
  <use id="Ellipse-3" stroke="#272a2a" stroke-opacity="1" stroke-linecap="round" fill="none" stroke-width="15" xlink:href="#stroke-path-2"/>
 </g>
</svg>
