<?xml version="1.0" encoding="UTF-8"?>
<svg width="540px" height="540px" viewBox="0 0 540 540" xmlns="http://www.w3.org/2000/svg" xmlns:xlink="http://www.w3.org/1999/xlink" version="1.1">
 <!-- Generated by Pixelmator Pro 2.0 -->
 <defs>
  <path id="Ellipse" d="M521 270 C521 131.377 408.623 19 270 19 131.377 19 19 131.377 19 270 19 408.623 131.377 521 270 521 408.623 521 521 408.623 521 270 Z"/>
 </defs>
 <defs>
  <path id="stroke-path" d="M298.203 528.5 L320.797 525.063 342.703 519.719 363.75 512.594 374.125 508.328 385.594 502.969 402.125 493.984 417.906 483.875 428.063 476.469 437.781 468.641 447.125 460.359 456.031 451.641 464.531 442.5 472.594 432.984 480.188 423.078 487.359 412.734 497.063 396.75 502.969 385.563 508.344 374.063 515.828 354.891 522.203 333.453 526.219 314.391 529.125 291.656 530 270.078 529.75 258.297 528.828 245.063 527.234 232.031 525.016 219.125 519.719 197.375 515.828 185.109 511.359 173.172 505.719 160.141 500.109 148.844 493.969 137.875 487.328 127.234 480.188 116.938 472.594 107.031 464.531 97.516 456.031 88.375 447.125 79.656 437.734 71.344 423.094 59.828 412.766 52.672 402.078 46 385.594 37.047 374.125 31.688 363.75 27.422 342.703 20.297 320.797 14.953 298.203 11.516 275.063 10.047 254.922 10.438 232.031 12.75 209.719 17.016 188.203 23.125 176.156 27.453 165.813 31.719 148.875 39.875 137.859 46.031 127.172 52.703 111.969 63.516 102.203 71.375 92.859 79.656 83.953 88.375 75.422 97.547 63.563 111.906 56.156 122.047 49.234 132.563 39.906 148.797 34.281 160.125 29.781 170.359 22.141 191.172 16.281 212.875 12.297 235.281 10.234 258.281 10.125 278.406 11.875 301.484 15.594 323.984 21.203 345.797 28.609 366.813 36.984 385.5 42.891 396.703 49.297 407.547 59.766 423.031 67.391 432.984 75.453 442.5 83.953 451.641 92.859 460.359 102.203 468.641 111.922 476.469 122.031 483.844 132.547 490.766 148.828 500.125 165.813 508.297 176.156 512.563 188.203 516.891 209.719 523 232.031 527.266 254.922 529.578 275.063 529.969 Z"/>
 </defs>
 <use id="Ellipse-1" stroke="#000000" stroke-opacity="1" stroke-linecap="round" fill="none" stroke-width="18" xlink:href="#stroke-path"/>
 <path id="Triangle" d="M269.5 57 L80 391 459 391 Z" fill="#000000" fill-opacity="1" stroke="none"/>
</svg>
